<?xml version="1.0" encoding="UTF-8"?>
<!DOCTYPE svg PUBLIC "-//W3C//DTD SVG 1.1//EN" "http://www.w3.org/Graphics/SVG/1.1/DTD/svg11.dtd">
<svg version="1.1" xmlns="http://www.w3.org/2000/svg" xmlns:xlink="http://www.w3.org/1999/xlink" x="0" y="0" width="572" height="406" viewBox="0, 0, 572, 406">
  <g id="Layer_1">
    <path d="M540.652,106.704 L543.218,106.808 L544.5,106.863 L544.82,106.877 C544.952,106.894 545.102,106.922 545.24,106.949 C545.528,106.975 545.774,107.131 546.021,107.266 C546.263,107.407 546.424,107.62 546.619,107.8 C546.756,108.007 546.905,108.21 547.021,108.422 C547.236,108.849 547.386,109.283 547.511,109.717 C547.732,110.586 547.84,111.455 547.906,112.322 C548.012,114.054 547.939,115.769 547.836,117.479 C547.738,115.77 547.607,114.058 547.307,112.394 C547.155,111.564 546.972,110.742 546.692,109.976 C546.407,109.238 546.002,108.471 545.447,108.216 C545.309,108.168 545.187,108.083 545.036,108.101 L544.82,108.08 L544.5,108.096 L543.218,108.151 L540.652,108.254 L535.522,108.461 C528.682,108.693 521.842,108.907 515.001,109.039 C508.161,109.225 501.321,109.262 494.48,109.373 L473.96,109.478 L453.439,109.368 C446.599,109.26 439.759,109.219 432.918,109.034 C426.078,108.901 419.238,108.685 412.397,108.456 L407.268,108.25 L405.985,108.2 C405.572,108.197 405.198,108.2 404.81,108.226 C404.055,108.322 403.352,108.558 402.786,109.016 C402.213,109.467 401.828,110.168 401.581,110.933 C401.327,111.699 401.185,112.527 401.106,113.366 C400.92,115.044 400.937,116.77 400.836,118.479 C400.737,116.768 400.519,115.075 400.506,113.335 C400.495,112.468 400.562,111.585 400.759,110.702 C400.951,109.828 401.321,108.909 402.034,108.21 C402.733,107.51 403.674,107.086 404.604,106.907 C405.061,106.833 405.545,106.79 405.985,106.76 L407.268,106.708 L412.397,106.502 C419.238,106.272 426.078,106.058 432.918,105.925 C439.759,105.741 446.599,105.7 453.439,105.592 L473.96,105.48 L494.48,105.585 C501.321,105.698 508.161,105.733 515.001,105.918 C521.842,106.053 528.682,106.267 535.522,106.497 L540.652,106.704 z M206.37,308.391 C206.541,306.95 207.719,305.867 209.113,305.754 C208.717,306.198 208.445,306.758 208.37,307.391 C208.176,309.029 209.358,310.529 210.996,310.724 L214.969,311.195 C215.168,311.218 215.364,311.22 215.559,311.204 C214.926,311.91 213.976,312.314 212.969,312.195 L208.996,311.724 C207.358,311.529 206.176,310.029 206.37,308.391 M156.354,303.555 L156.354,303.555 C156.48,302.077 157.674,300.943 159.108,300.828 C158.692,301.295 158.41,301.887 158.354,302.555 C158.214,304.2 159.444,305.659 161.088,305.798 L165.074,306.138 C165.24,306.153 165.402,306.144 165.563,306.13 C164.956,306.814 164.05,307.221 163.074,307.138 L159.088,306.798 C157.444,306.659 156.214,305.2 156.354,303.555 M267.897,315.488 C268.24,312.751 270.744,310.807 273.479,311.146 L279.432,311.891 C282.168,312.233 284.116,314.737 283.774,317.473 C283.432,320.208 280.928,322.16 278.192,321.814 L272.239,321.07 C269.504,320.727 267.555,318.224 267.897,315.488 M271.99,323.054 L277.944,323.798 C278.237,323.835 278.528,323.853 278.817,323.853 C282.293,323.853 285.316,321.257 285.758,317.72 C286.237,313.892 283.512,310.385 279.682,309.906 L273.728,309.161 C269.897,308.673 266.393,311.408 265.913,315.24 C265.435,319.069 268.16,322.575 271.99,323.054 M341.682,17.862 L338.09,34.815 C337.981,35.333 337.524,35.688 337.016,35.688 C336.94,35.688 336.863,35.681 336.787,35.663 C336.192,35.537 335.813,34.954 335.938,34.36 L339.529,17.406 C339.655,16.81 340.242,16.429 340.833,16.557 C341.428,16.683 341.808,17.266 341.682,17.862 M336.365,18.775 L332.84,35.453 C332.731,35.971 332.274,36.327 331.766,36.327 C331.69,36.327 331.614,36.319 331.537,36.302 C330.942,36.177 330.563,35.593 330.688,34.997 L334.213,18.32 C334.34,17.725 334.918,17.346 335.517,17.471 C336.111,17.596 336.491,18.18 336.365,18.775 M331.049,19.687 L327.59,36.091 C327.482,36.609 327.024,36.965 326.516,36.965 C326.44,36.965 326.364,36.956 326.288,36.94 C325.693,36.814 325.313,36.231 325.438,35.637 L328.896,19.234 C329.021,18.639 329.609,18.26 330.199,18.385 C330.794,18.51 331.175,19.094 331.049,19.687 M325.733,20.601 L322.34,36.727 C322.232,37.246 321.775,37.601 321.266,37.601 C321.19,37.601 321.114,37.595 321.038,37.578 C320.443,37.453 320.063,36.869 320.188,36.275 L323.581,20.148 C323.706,19.553 324.289,19.172 324.884,19.299 C325.479,19.424 325.859,20.007 325.733,20.601 M320.418,21.514 L317.092,37.365 C316.982,37.885 316.525,38.241 316.016,38.241 C315.94,38.241 315.865,38.233 315.789,38.217 C315.194,38.092 314.813,37.509 314.938,36.913 L318.264,21.062 C318.389,20.468 318.972,20.087 319.566,20.211 C320.161,20.336 320.542,20.919 320.418,21.514 M315.102,22.427 L311.843,38.002 C311.734,38.521 311.276,38.877 310.767,38.877 C310.692,38.877 310.616,38.87 310.54,38.853 C309.945,38.729 309.564,38.146 309.688,37.552 L312.947,21.977 C313.071,21.383 313.65,20.997 314.25,21.125 C314.845,21.249 315.226,21.832 315.102,22.427 M309.786,23.341 L306.593,38.64 C306.484,39.16 306.026,39.516 305.517,39.516 C305.442,39.516 305.366,39.509 305.291,39.492 C304.696,39.368 304.314,38.785 304.438,38.19 L307.631,22.891 C307.756,22.297 308.34,21.915 308.934,22.038 C309.528,22.163 309.91,22.746 309.786,23.341 M87.314,42.188 L84.314,56.188 C84.213,56.659 83.798,56.979 83.337,56.979 C83.268,56.979 83.197,56.973 83.127,56.957 C82.586,56.842 82.242,56.309 82.358,55.769 L85.358,41.769 C85.473,41.229 86.003,40.887 86.545,41.001 C87.085,41.117 87.429,41.648 87.314,42.188 M82.814,43.02 L79.98,56.353 C79.881,56.824 79.465,57.145 79.003,57.145 C78.935,57.145 78.864,57.139 78.794,57.123 C78.254,57.01 77.909,56.478 78.024,55.937 L80.858,42.604 C80.972,42.064 81.503,41.721 82.044,41.834 C82.585,41.95 82.928,42.48 82.814,43.02 M78.314,43.851 L75.648,56.518 C75.548,56.99 75.133,57.312 74.67,57.312 C74.602,57.312 74.532,57.306 74.463,57.291 C73.923,57.177 73.577,56.647 73.691,56.106 L76.357,43.439 C76.471,42.9 77.002,42.555 77.542,42.667 C78.082,42.781 78.428,43.311 78.314,43.851 M73.815,44.683 L71.315,56.683 C71.216,57.156 70.8,57.479 70.337,57.479 C70.27,57.479 70.2,57.473 70.131,57.458 C69.591,57.346 69.244,56.817 69.357,56.276 L71.857,44.276 C71.968,43.735 72.498,43.387 73.04,43.5 C73.581,43.614 73.927,44.142 73.815,44.683 M69.315,45.514 L66.982,56.848 C66.884,57.321 66.468,57.645 66.003,57.645 C65.937,57.645 65.868,57.639 65.8,57.625 C65.259,57.514 64.911,56.986 65.023,56.445 L67.356,45.112 C67.467,44.57 67.998,44.219 68.537,44.333 C69.078,44.445 69.426,44.973 69.315,45.514 M64.816,46.346 L62.649,57.013 C62.553,57.487 62.136,57.812 61.67,57.812 C61.604,57.812 61.537,57.806 61.47,57.792 C60.929,57.683 60.579,57.156 60.689,56.614 L62.856,45.947 C62.965,45.406 63.489,45.057 64.035,45.165 C64.576,45.276 64.925,45.803 64.816,46.346 M60.316,47.176 L58.316,57.176 C58.221,57.651 57.803,57.979 57.337,57.979 C57.272,57.979 57.207,57.973 57.139,57.959 C56.598,57.851 56.248,57.325 56.355,56.784 L58.355,46.784 C58.463,46.242 58.987,45.89 59.532,45.998 C60.073,46.108 60.424,46.635 60.316,47.176 M70.511,210.405 L70.216,220.38 C70.101,224.315 68.069,227.753 65.056,229.858 C66.601,227.905 67.565,225.469 67.644,222.804 L67.939,212.828 C68.133,206.231 62.896,200.674 56.298,200.478 L43.304,200.095 C36.708,199.898 31.15,205.137 30.956,211.735 L30.66,221.71 C30.649,222.08 30.66,222.447 30.684,222.809 C30.357,221.662 30.197,220.45 30.234,219.199 L30.529,209.221 C30.724,202.624 36.281,197.387 42.878,197.581 L58.871,198.054 C65.468,198.249 70.707,203.807 70.511,210.405 M538.555,152.725 C541.857,152.792 544.888,151.501 547.107,149.368 C545.509,154.259 540.847,157.773 535.452,157.662 L491.462,156.754 C484.863,156.618 479.575,151.108 479.712,144.51 L479.836,138.511 C479.903,135.215 481.313,132.246 483.528,130.117 C483.171,131.209 482.963,132.368 482.938,133.574 L482.814,139.573 C482.678,146.17 487.965,151.681 494.564,151.818 L538.555,152.725 z M464.59,150.199 C467.894,150.266 470.924,148.975 473.144,146.842 C471.545,151.733 466.883,155.246 461.488,155.136 L417.498,154.227 C410.899,154.092 405.612,148.581 405.748,141.983 L405.872,135.984 C405.94,132.688 407.349,129.72 409.564,127.591 C409.207,128.683 408.999,129.843 408.975,131.047 L408.851,137.045 C408.715,143.644 414.002,149.155 420.601,149.29 L464.59,150.199 z M441.652,284.825 C441.659,284.804 441.666,284.785 441.674,284.763 L441.672,284.776 C441.665,284.791 441.659,284.809 441.652,284.825 M479.617,80.254 C479.336,72.168 479.165,64.086 478.836,55.979 C480.408,63.954 481.233,72.044 481.954,80.117 C482.332,84.154 482.576,88.199 482.858,92.242 L482.956,93.73 C482.992,94.152 483.045,94.565 483.159,94.889 C483.258,95.236 483.404,95.478 483.576,95.662 C483.744,95.85 483.957,95.997 484.282,96.115 C484.903,96.366 485.84,96.44 486.779,96.473 C487.728,96.501 488.747,96.479 489.761,96.48 L501.904,96.563 C505.952,96.644 510,96.676 514.049,96.813 C522.145,97.034 530.24,97.359 538.336,97.979 C530.24,98.6 522.145,98.925 514.049,99.145 C510,99.284 505.952,99.314 501.904,99.395 L489.761,99.478 C488.749,99.473 487.745,99.479 486.67,99.437 C485.599,99.371 484.473,99.333 483.202,98.84 C482.579,98.605 481.914,98.188 481.414,97.617 C480.905,97.053 480.569,96.374 480.394,95.748 C480.191,95.111 480.128,94.51 480.084,93.924 C480.044,93.366 480.04,92.898 480.021,92.382 L479.617,80.254 z M395.763,79.756 C395.435,70.619 395.231,61.488 394.763,52.337 C396.474,61.355 397.332,70.5 398.1,79.622 C398.293,81.905 398.469,84.187 398.614,86.473 L398.838,89.9 C398.858,90.173 398.868,90.498 398.898,90.727 C398.933,90.959 398.937,91.198 399,91.424 C399.09,91.883 399.23,92.329 399.426,92.752 C400.166,94.46 401.715,95.797 403.498,96.278 C403.945,96.39 404.401,96.479 404.865,96.488 L405.219,96.502 L405.647,96.5 L406.505,96.496 L409.936,96.48 L423.656,96.563 C428.229,96.644 432.804,96.676 437.377,96.813 C446.524,97.034 455.672,97.359 464.819,97.979 C455.672,98.6 446.524,98.925 437.377,99.145 C432.804,99.284 428.229,99.314 423.656,99.395 L409.936,99.478 L406.505,99.462 L405.647,99.458 L405.219,99.455 L404.715,99.432 C404.035,99.409 403.361,99.278 402.705,99.099 C400.085,98.354 397.83,96.392 396.813,93.869 C396.551,93.243 396.365,92.586 396.256,91.919 C396.184,91.59 396.177,91.25 396.144,90.915 C396.116,90.576 396.12,90.329 396.106,90.033 L395.988,86.606 L395.763,79.756 z M482.336,52.479 C481.336,44.479 484.336,42.479 494.336,42.479 C504.336,42.479 523.836,44.479 523.836,44.479 C523.836,44.479 535.426,43.229 536.836,51.479 C538.493,61.17 543.836,94.479 541.836,94.479 L491.836,94.479 C487.733,94.479 485.203,94.264 485.006,90.165 C484.522,80.109 483.546,62.156 482.336,52.479 M397.336,49.979 C396.336,41.979 399.336,39.979 409.336,39.979 C419.336,39.979 470.336,40.979 470.336,40.979 C470.336,40.979 472.836,40.479 473.179,46.288 C473.206,46.757 473.346,47.215 473.365,47.683 L475.002,86.97 C475.185,91.339 471.691,94.979 467.319,94.979 L407.687,94.979 C403.584,94.979 400.203,91.764 400.006,87.665 C399.522,77.609 398.546,59.656 397.336,49.979 M449.749,361.957 C449.14,348.512 448.561,335.053 448.04,321.604 C447.77,314.555 447.513,307.504 447.312,300.465 C447.215,296.951 447.123,293.424 447.105,289.954 C447.104,289.639 447.105,289.325 447.107,289.011 L467.834,295.919 C463.013,297.715 459.865,299.45 458.836,300.48 C455.836,303.48 459.836,348.48 459.836,348.48 L484.09,347.311 C483.777,347.573 483.477,347.849 483.198,348.155 C481.578,349.939 480.749,352.239 480.863,354.631 C480.943,356.307 481.487,357.848 482.354,359.153 L449.749,361.957 z M291.359,353.026 L291.584,342.082 L295.367,342.513 C295.168,346.017 295.029,349.69 294.944,353.531 L294.824,353.514 C294.385,353.451 293.186,353.283 291.359,353.026 M139.604,332.491 L133.336,331.98 C133.336,331.98 132.722,331.196 132.711,323.961 L287.593,341.626 L287.37,352.465 C257.684,348.297 150.991,333.366 139.604,332.491 M80.836,339.48 L80.836,325.146 L84.771,326.457 C84.623,324.522 84.544,322.528 84.544,320.48 C84.544,300.242 91.978,284.98 101.836,284.98 C111.694,284.98 119.129,300.242 119.129,320.48 C119.129,340.718 111.694,355.98 101.836,355.98 C94.746,355.98 88.911,348.087 86.192,336.127 C86.158,337.242 86.116,338.376 86.065,339.48 L80.836,339.48 z M44.849,316.075 C45.04,314.898 45.161,313.712 45.258,312.527 C45.453,310.06 45.54,307.587 45.587,305.117 C45.669,300.17 45.598,295.233 45.369,290.273 C45.309,289.03 45.238,287.79 45.124,286.522 C45.089,286.184 45.081,285.924 45.005,285.505 C44.988,285.4 44.959,285.294 44.936,285.19 L67.958,286.641 L68.836,313.48 L69.36,286.729 L73.336,286.98 L69.367,286.373 L70.285,239.525 L178.415,244.384 L180.126,296.757 L142.067,292.705 C141.93,291.392 141.769,290.079 141.551,288.769 C140.916,285.11 139.947,281.476 138.535,277.971 C137.063,274.499 135.144,271.154 132.636,268.248 C130.126,265.36 127.068,262.899 123.617,261.255 C116.74,257.863 108.81,257.529 101.836,259.48 C109.07,259.168 116.26,260.474 122.14,263.992 L123.228,264.661 L124.26,265.409 C124.969,265.877 125.591,266.462 126.258,266.98 C127.509,268.121 128.71,269.32 129.738,270.67 C131.856,273.314 133.566,276.303 134.842,279.5 C136.188,282.671 137.12,286.039 137.829,289.468 C138.617,292.887 138.96,296.412 139.328,299.943 C139.911,306.93 139.915,314.018 139.838,321.182 L132.753,320.217 C132.825,316.849 133,312.533 133.336,306.98 C135.336,277.98 116.336,258.98 98.336,265.98 C81.186,272.649 76.749,296.567 77.232,320.434 L44.849,316.075 z M25.585,313.489 C19.051,313.022 12.21,311.644 10.848,310.536 C9.146,308.045 7.929,292.48 10.552,286.359 C12.002,282.981 19.438,282.937 22.803,283.439 L26.726,284.041 L40.64,284.918 C40.652,284.927 40.669,284.935 40.679,284.944 C40.999,285.182 41.236,285.432 41.407,285.714 C41.482,285.862 41.559,286.014 41.604,286.189 C41.667,286.369 41.727,286.723 41.782,286.992 C42.008,288.158 42.201,289.365 42.383,290.569 C43.102,295.398 43.672,300.28 44.087,305.164 C44.29,307.608 44.453,310.057 44.509,312.505 C44.532,313.678 44.531,314.853 44.463,316.023 L25.802,313.511 L25.585,313.489 z M32.498,59.538 C33.074,54.897 34.04,47.128 70.332,41.945 C109.278,36.381 278.809,18.641 353.225,12.417 C358.471,13.349 363.615,14.675 368.473,16.669 C370.428,17.496 372.319,18.439 374.115,19.516 C375.89,20.623 377.568,21.854 379.083,23.247 C380.571,24.665 381.891,26.233 382.998,27.93 C384.109,29.626 384.931,31.492 385.584,33.406 C385.837,34.121 386.028,34.855 386.197,35.596 L32.304,60.939 C32.376,60.491 32.437,60.026 32.498,59.538 M379.527,10.474 C416.693,8.438 453.596,11.073 483.431,17.891 C515.063,25.121 536.292,36.719 543.205,50.544 C554.429,72.992 556.022,133.344 556.047,164.954 L397.309,162.033 C396.87,144.913 396.319,127.827 395.653,110.727 C394.944,93.315 394.163,75.908 392.893,58.487 L392.364,51.952 L391.718,45.406 C391.508,43.226 391.148,41.018 390.87,38.831 C390.475,36.587 389.988,34.299 389.114,32.141 C388.263,29.981 387.208,27.885 385.842,25.999 C384.481,24.115 382.896,22.411 381.158,20.911 C379.396,19.437 377.491,18.18 375.52,17.079 C373.529,16.011 371.474,15.11 369.381,14.341 C366.39,13.28 363.35,12.472 360.284,11.839 C368.221,11.203 374.756,10.736 379.527,10.474 M294.795,185.479 L298.836,185.479 L298.836,315.945 C297.061,323.388 295.965,332.156 295.377,342.329 L291.59,341.814 L294.795,185.479 z M358.836,201.479 C358.836,205.339 355.695,208.48 351.836,208.48 C347.977,208.48 344.836,205.339 344.836,201.479 L344.836,185.479 C344.836,181.619 347.977,178.479 351.836,178.479 C355.695,178.479 358.836,181.619 358.836,185.479 L358.836,201.479 z M290.732,188.492 L29.328,189.471 L29.549,181.449 L346.866,175.679 C344.474,176.897 342.588,178.961 341.6,181.479 L290.876,181.479 L290.732,188.492 z M234.184,302.512 L181.259,296.878 L182.285,244.559 L232.362,246.809 L234.184,302.512 z M28.113,233.624 L29.219,193.434 L290.731,188.537 L289.566,245.375 L28.113,233.624 z M388.229,96.767 L30.383,115.345 L30.331,114.304 C29.507,97.824 30.783,74.955 31.811,64.91 L386.201,35.615 C386.482,36.849 386.681,38.108 386.845,39.383 C387.011,41.521 387.256,43.624 387.359,45.784 L387.687,52.251 L387.899,58.744 C388.215,71.398 388.27,84.081 388.229,96.767 M305.737,118.332 L388.106,114.731 C387.958,129.66 387.725,144.596 387.402,159.511 L303.448,161.371 L305.737,118.332 z M238.735,121.262 L300.945,118.541 L303.224,161.376 L236.371,162.858 L238.735,121.262 z M177.599,123.934 L233.949,121.471 L236.301,162.86 L175.457,164.207 L177.599,123.934 z M124.836,126.479 L127.322,165.275 L27.792,167.479 L27.798,167.798 L26.816,167.306 L26.482,130.54 L77.984,128.288 L80.336,164.979 L82.701,128.082 L173.083,124.132 L175.215,164.212 L127.349,165.273 L129.836,126.479 L124.836,126.479 z M43.131,282.107 C41.896,280.969 40.534,280.388 39.237,279.907 C37.931,279.45 36.642,279.137 35.367,278.879 C32.496,278.319 29.655,277.995 26.901,277.66 L28.003,237.623 L66.413,239.351 L67.943,286.157 L43.435,282.415 C43.334,282.31 43.235,282.203 43.131,282.107 M142.369,296.684 L180.219,299.634 L180.836,318.48 L181.203,299.71 L234.228,303.845 L234.836,322.48 L235.199,303.921 L280.836,307.48 L235.226,302.623 L236.316,246.987 L289.484,249.375 L287.6,341.272 L139.902,321.19 C141.587,314.224 142.462,307.047 142.446,299.8 C142.445,298.762 142.417,297.723 142.369,296.684 M334.836,392.875 C322.506,392.875 313.21,373.789 313.21,348.48 C313.21,323.17 322.506,304.083 334.836,304.083 C347.165,304.083 356.462,323.17 356.462,348.48 C356.462,373.789 347.165,392.875 334.836,392.875 M407.336,259.98 L407.336,265.98 C407.336,268.737 405.093,270.98 402.336,270.98 C399.579,270.98 397.336,268.737 397.336,265.98 L397.336,259.98 C397.336,257.223 399.579,254.98 402.336,254.98 C405.093,254.98 407.336,257.223 407.336,259.98 M496.836,181.479 C481.836,181.479 483.836,185.479 483.836,185.479 L483.836,248.48 L500.141,248.27 C505.141,250.212 510.803,252.251 516.28,254.224 C517.633,254.71 519.045,255.218 520.485,255.741 C518.263,255.86 516.027,255.947 513.791,256.024 C509.283,256.176 504.766,256.283 500.248,256.373 C491.211,256.552 482.166,256.665 473.121,256.754 C455.033,256.927 436.94,257.006 418.848,257.023 C416.065,256.817 413.204,256.836 410.461,257.605 C409.989,257.742 409.527,257.913 409.073,258.103 C408.25,255.153 405.545,252.98 402.336,252.98 C398.477,252.98 395.336,256.119 395.336,259.98 L395.336,265.98 C395.336,269.47 397.907,272.364 401.253,272.886 C401.157,274.918 401.213,276.954 401.336,278.98 C401.269,276.956 401.27,274.927 401.418,272.912 C401.72,272.952 402.024,272.98 402.336,272.98 C406.195,272.98 409.336,269.839 409.336,265.98 L409.336,259.98 C409.336,259.555 409.292,259.142 409.219,258.739 C409.685,258.555 410.157,258.392 410.643,258.266 C413.282,257.603 416.065,257.654 418.795,257.935 L418.806,257.936 L418.829,257.936 C436.921,258.434 455.013,258.869 473.11,259.211 C482.16,259.379 491.21,259.524 500.267,259.602 C504.795,259.639 509.325,259.661 513.862,259.637 C516.131,259.623 518.402,259.601 520.685,259.542 C521.826,259.512 522.97,259.476 524.129,259.413 C524.71,259.382 525.293,259.345 525.898,259.289 C526.203,259.26 526.509,259.23 526.851,259.177 C527.022,259.152 527.193,259.123 527.419,259.071 C527.514,259.051 527.665,259.008 527.81,258.96 C527.879,258.94 528.031,258.875 528.135,258.826 L528.224,258.783 L528.409,258.668 C528.413,258.665 528.415,258.662 528.419,258.66 C537.083,261.921 545.057,265.234 546.603,267.165 C549.131,270.325 551.129,273.631 552.627,277.122 C545.991,271.832 537.517,269.165 536.983,269.001 L536.905,268.978 L536.823,268.98 C536.58,268.986 528.225,269.199 516.72,269.58 C516.227,269.598 515.734,269.607 515.241,269.63 C512.585,269.72 509.779,269.819 506.879,269.924 C500.332,270.013 493.784,270.134 487.235,270.304 C480.159,270.496 473.119,270.707 466.001,271.086 C462.401,271.298 458.779,271.695 455.135,272.551 C454.533,272.695 453.931,272.859 453.327,273.034 C452.134,273.184 451.093,273.333 450.246,273.488 C447.95,273.906 446.241,275.414 444.961,277.563 C444.804,277.723 444.647,277.883 444.496,278.055 C444.491,278.061 444.488,278.066 444.483,278.071 C443.517,279.135 442.733,280.389 442.334,281.834 C442.058,282.679 441.887,283.528 441.774,284.226 L441.674,284.763 C441.678,284.753 441.682,284.742 441.686,284.733 L441.703,284.697 C441.699,284.704 441.741,284.619 441.689,284.73 C441.683,284.744 441.679,284.76 441.672,284.776 L441.671,284.782 C441.658,284.813 441.64,284.92 441.638,284.889 L441.639,284.876 C441.642,284.866 441.646,284.844 441.652,284.825 C441.604,284.938 441.558,285.052 441.519,285.169 C441.399,285.555 441.411,285.586 441.386,285.699 L441.33,286.003 L441.3,286.221 L441.207,287.008 C441.113,287.97 441.053,288.867 440.995,289.769 C440.818,292.673 440.697,295.541 440.583,298.41 C439.809,297.424 438.879,296.559 437.82,295.875 C436.504,295.013 434.991,294.443 433.431,294.195 C433.041,294.119 432.648,294.084 432.254,294.069 L431.672,294.038 L431.204,294.033 L429.33,294.01 L421.836,293.981 L414.342,294.014 L412.468,294.036 L412,294.041 L411.419,294.072 C411.024,294.087 410.631,294.123 410.242,294.198 C408.682,294.445 407.17,295.019 405.854,295.88 C403.212,297.581 401.326,300.402 400.843,303.483 C400.715,304.235 400.68,305.058 400.689,305.756 L400.747,307.63 L400.893,311.377 C401.26,321.369 401.802,331.362 402.836,341.355 C403.87,331.362 404.412,321.369 404.779,311.377 L404.925,307.63 L404.982,305.756 C405.01,305.205 405.058,304.782 405.161,304.303 C405.571,302.454 406.771,300.822 408.373,299.885 C409.172,299.418 410.051,299.106 410.959,298.986 C411.185,298.944 411.414,298.932 411.645,298.93 L412,298.916 L412.468,298.922 L414.342,298.945 L421.836,298.979 L429.33,298.949 L431.204,298.926 L431.672,298.92 L432.026,298.934 C432.256,298.935 432.486,298.948 432.712,298.99 C433.621,299.108 434.498,299.424 435.295,299.891 C436.897,300.825 438.094,302.458 438.504,304.304 C438.608,304.783 438.656,305.205 438.684,305.756 L438.738,307.63 L438.885,311.377 C439.082,316.74 439.338,322.102 439.687,327.465 C439.41,338.067 439.163,348.666 438.94,359.271 C425.957,361.59 384.564,366.283 377.836,333.48 C369.836,294.48 333.836,277.48 316.836,287.48 C308.415,292.434 302.942,300.827 299.56,313.136 L302.192,242.728 L325.836,244.48 L325.836,185.479 L329.836,185.479 L330.836,245.48 L377.836,249.48 L379.836,185.479 L362.688,183.764 C362.109,180.092 359.713,177.021 356.444,175.504 L357.872,175.478 L357.8,171.479 L29.659,177.447 L29.824,171.435 L388.349,163.491 L388.819,322.962 C387.511,318.268 385.875,313.616 383.81,309.142 C383.273,308.012 382.738,306.885 382.135,305.785 C381.556,304.674 380.95,303.577 380.302,302.499 C379.026,300.336 377.643,298.223 376.065,296.245 C374.521,294.246 372.831,292.348 370.996,290.59 C369.171,288.827 367.219,287.178 365.103,285.761 C360.894,282.899 356.215,280.736 351.333,279.458 C346.459,278.149 341.437,277.683 336.486,277.734 C331.528,277.826 326.627,278.446 321.836,279.48 C326.733,279.276 331.61,279.199 336.424,279.62 C341.232,280.013 345.965,280.899 350.465,282.367 C354.948,283.888 359.182,286.017 362.959,288.788 C366.701,291.596 370.101,294.884 372.925,298.669 C375.802,302.407 378.233,306.511 380.337,310.799 C382.465,315.077 384.222,319.543 385.788,324.116 C387.387,328.68 388.675,333.392 390.59,338.024 C391.588,340.301 392.782,342.653 394.747,344.399 C395.729,345.254 396.901,345.889 398.127,346.22 C399.357,346.547 400.616,346.593 401.836,346.48 C399.393,346.279 397.044,345.346 395.57,343.568 C394.061,341.827 393.217,339.583 392.515,337.316 C391.806,335.037 391.26,332.674 390.701,330.298 C390.161,328.109 389.614,325.903 389.02,323.7 L394.934,169.992 L556.021,172.955 C555.989,176.992 555.938,180.168 555.897,182.225 C555.335,182.366 554.707,182.523 554.049,182.69 C541.204,182.337 508.751,181.479 496.836,181.479 M549.219,347.704 C547.998,335.766 546.215,320.836 545.254,313.362 C547.099,316.987 550.588,319.621 554.743,320.295 L555.84,341.138 C555.938,343.609 555.971,345.841 555.947,347.885 L549.219,347.704 z M489.518,347.208 L503.275,346.546 L501.52,290.376 C502.504,290.287 503.501,290.211 504.514,290.156 L506.271,346.403 L519.482,345.768 C519.597,345.762 519.709,345.759 519.822,345.759 C523.529,345.759 526.631,348.684 526.811,352.424 C526.9,354.283 526.256,356.072 524.993,357.459 C523.731,358.849 522.014,359.662 520.154,359.751 L490.189,361.192 C486.345,361.385 483.047,358.392 482.861,354.535 C482.771,352.677 483.417,350.888 484.679,349.5 C485.94,348.112 487.658,347.297 489.518,347.208 M472.482,341.836 C475.478,341.594 478.477,341.468 481.477,341.365 C484.477,341.299 487.478,341.258 490.482,341.333 C493.486,341.397 496.492,341.531 499.504,341.864 C496.516,342.363 493.521,342.663 490.525,342.894 C487.53,343.136 484.531,343.262 481.531,343.363 C478.531,343.426 475.53,343.467 472.525,343.392 C469.521,343.327 466.516,343.194 463.504,342.864 C466.492,342.367 469.486,342.067 472.482,341.836 M472.482,337.17 C475.478,336.927 478.477,336.801 481.477,336.698 C484.477,336.632 487.478,336.591 490.482,336.667 C493.486,336.73 496.492,336.865 499.504,337.197 C496.516,337.697 493.521,337.997 490.525,338.227 C487.53,338.469 484.531,338.595 481.531,338.696 C478.531,338.759 475.53,338.8 472.525,338.725 C469.521,338.66 466.516,338.528 463.504,338.197 C466.492,337.7 469.486,337.401 472.482,337.17 M472.482,332.503 C475.478,332.26 478.477,332.134 481.477,332.032 C484.477,331.965 487.478,331.925 490.482,332 C493.486,332.064 496.492,332.198 499.504,332.531 C496.516,333.03 493.521,333.33 490.525,333.56 C487.53,333.803 484.531,333.928 481.531,334.03 C478.531,334.093 475.53,334.133 472.525,334.058 C469.521,333.993 466.516,333.861 463.504,333.531 C466.492,333.033 469.486,332.734 472.482,332.503 M472.482,327.836 C475.478,327.594 478.477,327.468 481.477,327.365 C484.477,327.299 487.478,327.258 490.482,327.333 C493.486,327.397 496.492,327.531 499.504,327.864 C496.516,328.363 493.521,328.663 490.525,328.894 C487.53,329.136 484.531,329.262 481.531,329.363 C478.531,329.426 475.53,329.467 472.525,329.392 C469.521,329.327 466.516,329.194 463.504,328.864 C466.492,328.367 469.486,328.067 472.482,327.836 M472.482,323.17 C475.478,322.927 478.477,322.801 481.477,322.698 C484.477,322.632 487.478,322.591 490.482,322.667 C493.486,322.73 496.492,322.865 499.504,323.197 C496.516,323.697 493.521,323.997 490.525,324.227 C487.53,324.469 484.531,324.595 481.531,324.696 C478.531,324.759 475.53,324.8 472.525,324.725 C469.521,324.66 466.516,324.528 463.504,324.197 C466.492,323.7 469.486,323.401 472.482,323.17 M472.482,318.503 C475.478,318.26 478.477,318.134 481.477,318.032 C484.477,317.965 487.478,317.925 490.482,318 C493.486,318.064 496.492,318.198 499.504,318.531 C496.516,319.03 493.521,319.33 490.525,319.56 C487.53,319.803 484.531,319.928 481.531,320.03 C478.531,320.093 475.53,320.133 472.525,320.058 C469.521,319.993 466.516,319.861 463.504,319.531 C466.492,319.033 469.486,318.734 472.482,318.503 M472.482,313.836 C475.478,313.594 478.477,313.468 481.477,313.365 C484.477,313.299 487.478,313.258 490.482,313.333 C493.486,313.397 496.492,313.531 499.504,313.864 C496.516,314.363 493.521,314.663 490.525,314.894 C487.53,315.136 484.531,315.262 481.531,315.363 C478.531,315.426 475.53,315.467 472.525,315.392 C469.521,315.327 466.516,315.194 463.504,314.864 C466.492,314.367 469.486,314.067 472.482,313.836 M472.482,309.17 C475.478,308.927 478.477,308.801 481.477,308.698 C484.477,308.632 487.478,308.591 490.482,308.667 C493.486,308.73 496.492,308.865 499.504,309.197 C496.516,309.697 493.521,309.997 490.525,310.227 C487.53,310.469 484.531,310.595 481.531,310.696 C478.531,310.759 475.53,310.8 472.525,310.725 C469.521,310.66 466.516,310.528 463.504,310.197 C466.492,309.7 469.486,309.401 472.482,309.17 M472.482,304.503 C475.478,304.26 478.477,304.134 481.477,304.032 C484.477,303.965 487.478,303.924 490.482,304 C493.486,304.064 496.492,304.198 499.504,304.531 C496.516,305.03 493.521,305.33 490.525,305.561 C487.53,305.802 484.531,305.928 481.531,306.03 C478.531,306.092 475.53,306.133 472.525,306.058 C469.521,305.993 466.516,305.861 463.504,305.531 C466.492,305.033 469.486,304.734 472.482,304.503 M481.477,299.365 C484.477,299.298 487.478,299.258 490.482,299.333 C493.486,299.397 496.492,299.531 499.504,299.864 C496.516,300.364 493.521,300.663 490.525,300.894 C487.53,301.136 484.531,301.262 481.531,301.363 C478.531,301.426 475.53,301.466 472.525,301.391 C469.521,301.327 466.516,301.195 463.504,300.864 C466.492,300.367 469.486,300.067 472.482,299.836 C475.478,299.593 478.477,299.468 481.477,299.365 M479.443,295.577 C481.315,295.389 483.188,295.27 485.063,295.23 C486.938,295.184 488.815,295.221 490.693,295.325 C492.572,295.429 494.451,295.605 496.336,295.98 C494.47,296.438 492.6,296.697 490.729,296.884 C488.856,297.072 486.983,297.193 485.108,297.229 C483.233,297.273 481.356,297.237 479.479,297.131 C478.016,297.049 476.553,296.922 475.087,296.696 C474.67,296.631 474.253,296.562 473.836,296.48 C474.996,296.197 476.157,295.995 477.32,295.833 C478.027,295.736 478.735,295.649 479.443,295.577 M515.482,341.836 C518.478,341.594 521.477,341.468 524.477,341.365 C527.477,341.299 530.478,341.258 533.482,341.333 C536.486,341.397 539.492,341.531 542.504,341.864 C539.516,342.363 536.521,342.663 533.525,342.894 C530.53,343.136 527.531,343.262 524.531,343.363 C521.531,343.426 518.53,343.467 515.525,343.392 C512.521,343.327 509.516,343.194 506.504,342.864 C509.492,342.367 512.486,342.067 515.482,341.836 M533.525,305.561 C530.53,305.802 527.531,305.928 524.531,306.03 C521.531,306.092 518.53,306.133 515.525,306.058 C512.521,305.993 509.516,305.861 506.504,305.531 C509.492,305.033 512.486,304.734 515.482,304.503 C518.478,304.26 521.477,304.134 524.477,304.032 C527.477,303.965 530.478,303.924 533.482,304 C536.486,304.064 539.492,304.198 542.504,304.531 C539.516,305.03 536.521,305.33 533.525,305.561 M533.525,310.227 C530.53,310.469 527.531,310.595 524.531,310.696 C521.531,310.759 518.53,310.8 515.525,310.725 C512.521,310.66 509.516,310.528 506.504,310.197 C509.492,309.7 512.486,309.401 515.482,309.17 C518.478,308.927 521.477,308.801 524.477,308.698 C527.477,308.632 530.478,308.591 533.482,308.667 C536.486,308.73 539.492,308.865 542.504,309.197 C539.516,309.697 536.521,309.997 533.525,310.227 M533.525,314.894 C530.53,315.136 527.531,315.262 524.531,315.363 C521.531,315.426 518.53,315.467 515.525,315.392 C512.521,315.327 509.516,315.194 506.504,314.864 C509.492,314.367 512.486,314.067 515.482,313.836 C518.478,313.594 521.477,313.468 524.477,313.365 C527.477,313.299 530.478,313.258 533.482,313.333 C536.486,313.397 539.492,313.531 542.504,313.864 C539.516,314.363 536.521,314.663 533.525,314.894 M533.525,319.56 C530.53,319.803 527.531,319.928 524.531,320.03 C521.531,320.093 518.53,320.133 515.525,320.058 C512.521,319.993 509.516,319.861 506.504,319.531 C509.492,319.033 512.486,318.734 515.482,318.503 C518.478,318.26 521.477,318.134 524.477,318.032 C527.477,317.965 530.478,317.925 533.482,318 C536.486,318.064 539.492,318.198 542.504,318.531 C539.516,319.03 536.521,319.33 533.525,319.56 M533.525,324.227 C530.53,324.469 527.531,324.595 524.531,324.696 C521.531,324.759 518.53,324.8 515.525,324.725 C512.521,324.66 509.516,324.528 506.504,324.197 C509.492,323.7 512.486,323.401 515.482,323.17 C518.478,322.927 521.477,322.801 524.477,322.698 C527.477,322.632 530.478,322.591 533.482,322.667 C536.486,322.73 539.492,322.865 542.504,323.197 C539.516,323.697 536.521,323.997 533.525,324.227 M533.525,328.894 C530.53,329.136 527.531,329.262 524.531,329.363 C521.531,329.426 518.53,329.467 515.525,329.392 C512.521,329.327 509.516,329.194 506.504,328.864 C509.492,328.367 512.486,328.067 515.482,327.836 C518.478,327.594 521.477,327.468 524.477,327.365 C527.477,327.299 530.478,327.258 533.482,327.333 C536.486,327.397 539.492,327.531 542.504,327.864 C539.516,328.363 536.521,328.663 533.525,328.894 M542.504,337.197 C539.516,337.697 536.521,337.997 533.525,338.227 C530.53,338.469 527.531,338.595 524.531,338.696 C521.531,338.759 518.53,338.8 515.525,338.725 C512.521,338.66 509.516,338.528 506.504,338.197 C509.492,337.7 512.486,337.401 515.482,337.17 C518.478,336.927 521.477,336.801 524.477,336.698 C527.477,336.632 530.478,336.591 533.482,336.667 C536.486,336.73 539.492,336.865 542.504,337.197 M533.525,333.56 C530.53,333.803 527.531,333.928 524.531,334.03 C521.531,334.093 518.53,334.133 515.525,334.058 C512.521,333.993 509.516,333.861 506.504,333.531 C509.492,333.033 512.486,332.734 515.482,332.503 C518.478,332.26 521.477,332.134 524.477,332.032 C527.477,331.965 530.478,331.925 533.482,332 C536.486,332.064 539.492,332.198 542.504,332.531 C539.516,333.03 536.521,333.33 533.525,333.56 M530.336,294.98 C528.47,295.438 526.6,295.697 524.729,295.884 C522.856,296.072 520.983,296.193 519.108,296.229 C517.233,296.273 515.356,296.237 513.479,296.131 C511.6,296.027 509.72,295.852 507.836,295.48 C509.702,295.025 511.572,294.767 513.443,294.577 C515.315,294.389 517.188,294.27 519.063,294.23 C520.938,294.184 522.815,294.221 524.693,294.325 C526.572,294.429 528.451,294.605 530.336,294.98 M524.884,345.345 L542.781,344.482 L542.724,348.538 L538.836,355.48 L528.242,355.911 C528.669,354.781 528.868,353.568 528.809,352.328 C528.668,349.405 527.131,346.882 524.884,345.345 M447.84,283.059 C448.021,282.511 448.289,282.007 448.66,281.516 C449.394,280.529 450.564,279.643 451.916,278.914 C453.266,278.179 454.79,277.586 456.374,277.1 C459.549,276.124 462.942,275.511 466.369,275.083 C473.318,274.266 480.372,273.61 487.389,272.974 C494.417,272.346 501.452,271.77 508.491,271.236 L514.182,270.826 L518.224,271.095 C520.02,271.288 521.826,271.319 523.606,271.566 C524.498,271.67 525.396,271.727 526.284,271.841 L528.938,272.228 C530.695,272.509 532.451,272.828 534.146,273.308 C535.868,273.718 537.483,274.378 539.054,275.114 C540.549,275.953 541.947,276.985 542.936,278.397 C543.951,279.79 544.47,281.541 544.69,283.355 C544.91,281.546 544.661,279.609 543.773,277.896 C542.881,276.186 541.431,274.819 539.836,273.771 C536.569,271.771 532.875,270.877 529.25,270.253 C529.115,270.233 528.979,270.221 528.845,270.201 C533.313,270.071 536.23,269.995 536.765,269.982 C537.706,270.284 547.02,273.383 553.44,279.165 C554.721,282.666 555.521,286.354 555.848,290.271 L556.756,294.484 C549.613,294.528 543.836,300.326 543.836,307.48 C543.836,308.386 543.93,309.27 544.106,310.124 L543.256,310.677 C543.21,306.768 543.085,303.978 542.836,303.48 C542.556,302.918 542.117,301.649 541.013,300.089 C538.52,300.453 536.023,300.702 533.525,300.894 C530.53,301.136 527.531,301.262 524.531,301.363 C521.531,301.426 518.53,301.466 515.525,301.391 C512.521,301.327 509.516,301.195 506.504,300.864 C509.492,300.367 512.486,300.067 515.482,299.836 C518.478,299.593 521.477,299.468 524.477,299.365 C527.477,299.298 530.478,299.258 533.482,299.333 C535.893,299.384 538.305,299.487 540.72,299.695 C539.828,298.521 538.555,297.212 536.706,295.932 C537.277,296.202 537.851,296.463 538.419,296.756 L538.703,296.876 C553.725,298.614 546.748,285.958 545.599,284.433 L545.055,284.433 C546.456,286.295 547.544,292.563 544.766,293.73 C544.496,293.838 544.32,294.514 540.112,293.129 C528.043,286.939 515.434,285.479 504.386,286.065 C503.373,286.118 502.377,286.192 501.392,286.278 C486.98,287.537 475.726,292.038 472.731,293.336 L447.493,284.923 C447.571,284.146 447.664,283.596 447.84,283.059 M559.336,318.48 C554.09,318.48 549.836,313.555 549.836,307.48 C549.836,301.405 554.09,296.48 559.336,296.48 C564.583,296.48 568.836,301.405 568.836,307.48 C568.836,313.555 564.583,318.48 559.336,318.48 M569.836,307.48 C569.836,306.091 569.613,304.756 569.211,303.502 C569.285,298.245 568.146,293.207 565.92,290.119 C564.977,288.811 563.832,287.829 562.562,287.217 C561.383,278.141 557.937,270.127 552.069,262.792 C548.799,258.704 537.661,254.49 519.806,248.053 C517.625,218.325 518.9,205.299 520.468,199.594 C531.049,196.042 546.104,191.824 560.169,188.378 L562.758,187.745 L562.835,185.08 C562.958,180.798 565.674,79.828 549.467,47.413 C539.384,27.248 508.84,16.518 484.991,11.068 C454.536,4.106 416.944,1.413 379.145,3.485 C332.106,6.061 114.21,28.604 69.34,35.014 C30.964,40.496 26.665,49.709 25.551,58.677 C25.499,59.102 25.448,59.513 25.383,59.905 C25.313,60.329 25.238,60.852 25.161,61.452 L24.683,61.486 L24.874,63.964 C23.869,73.635 22.665,94.342 23.191,110.979 L19.303,110.979 L19.855,171.653 L22.776,173.113 L19.939,276.201 C14.985,276.093 6.942,277.011 4.119,283.601 C0.848,291.233 1.315,310.908 5.861,315.454 C9.375,318.968 20.311,320.124 24.977,320.463 L73.836,327.04 L73.836,346.48 L84.111,346.48 C86.503,351.328 92.739,362.439 100.487,364.375 C108.999,366.503 126.962,364.541 127.722,364.458 L128.037,364.423 L128.341,364.332 C129.532,363.976 139.551,360.369 142.419,339.811 C165.145,342.386 271.492,357.303 290.836,360.022 L290.836,383.48 L307.594,383.48 C310.813,393.909 320.756,401.278 334.804,403.439 C336.829,403.75 339.105,403.884 341.519,403.884 C355.215,403.883 373.262,399.598 374.152,399.383 L374.888,399.206 L375.484,398.742 C383.736,392.325 386.59,382.66 389.106,374.134 C389.23,373.712 389.354,373.295 389.476,372.884 C393.22,374.017 396.833,373.594 397.756,373.456 L487.786,365.712 C489.731,371.112 495.471,381.884 510.761,384.433 C529.023,387.478 537.947,384.726 547.191,378.948 C557.887,372.263 563.888,367.197 562.833,340.84 L561.929,323.656 C563.279,322.344 564.924,320.065 566.542,316.106 C568.585,313.81 569.836,310.794 569.836,307.48 M426.336,308.48 C431.583,308.48 435.836,313.405 435.836,319.48 C435.836,325.555 431.583,330.48 426.336,330.48 C421.09,330.48 416.836,325.555 416.836,319.48 C416.836,313.405 421.09,308.48 426.336,308.48 M424.836,332.48 C432.016,332.48 437.836,326.659 437.836,319.48 C437.836,312.3 432.016,306.48 424.836,306.48 C417.656,306.48 411.836,312.3 411.836,319.48 C411.836,326.659 417.656,332.48 424.836,332.48 M89.518,319.98 C89.518,315.273 91.044,311.456 92.926,311.456 C94.81,311.456 96.336,315.273 96.336,319.98 C96.336,324.687 94.81,328.502 92.926,328.502 C91.044,328.502 89.518,324.687 89.518,319.98 M332.336,347.98 C332.336,353.502 330.545,357.98 328.336,357.98 C326.127,357.98 324.336,353.502 324.336,347.98 C324.336,342.456 326.127,337.98 328.336,337.98 C330.545,337.98 332.336,342.456 332.336,347.98 M475.836,188.479 L475.836,235.48 C475.836,248.48 476.836,251.48 473.836,251.48 L413.836,251.48 C399.836,251.48 401.836,244.48 401.836,241.48 L401.836,188.479 C401.836,180.479 404.674,179.479 407.836,179.479 C412.836,179.479 455.854,179.282 467.836,180.479 C477.836,181.479 475.836,185.479 475.836,188.479 M90.802,307.354 C92.968,296.7 97.578,289.98 101.836,289.98 C107.65,289.98 114.129,302.505 114.129,320.48 C114.129,338.453 107.65,350.98 101.836,350.98 C97.29,350.98 92.337,343.321 90.394,331.388 C91.764,335.845 93.913,338.73 96.336,338.73 C100.478,338.73 103.836,330.334 103.836,319.98 C103.836,309.624 100.478,301.23 96.336,301.23 C94.143,301.23 92.174,303.6 90.802,307.354 M379.836,51.479 C379.836,54.479 378.836,76.479 378.836,85.479 C378.836,94.23 382.618,90.69 370.875,95.084 C370.171,95.348 369.427,95.499 368.675,95.537 L311.976,98.391 C307.37,98.623 303.68,94.629 304.274,90.057 L308.955,54.049 C309.407,50.575 312.235,47.894 315.729,47.632 L370.836,43.479 C377.836,42.479 379.836,48.479 379.836,51.479 M234.322,65.388 L230.049,94.173 C229.444,98.245 226.049,101.326 221.938,101.533 L181.311,103.577 C175.777,103.856 171.417,98.928 172.363,93.47 L177.194,65.66 C177.873,61.762 181.111,58.821 185.057,58.523 L225.127,55.504 C230.652,55.089 235.137,59.908 234.322,65.388 M303.119,60.113 L298.46,91.493 C297.801,95.933 294.1,99.291 289.616,99.517 L245.324,101.746 C239.293,102.051 234.537,96.678 235.57,90.727 L240.838,60.409 C241.575,56.158 245.107,52.952 249.409,52.627 L293.095,49.336 C299.118,48.883 304.006,54.136 303.119,60.113 M277.877,235.468 L246.922,234.729 C245.117,234.685 243.264,233.786 241.836,232.261 C240.252,230.572 239.395,228.381 239.482,226.254 L240.59,199.636 C240.715,196.6 242.786,194.474 245.625,194.465 L277.055,194.354 L277.074,194.354 C278.907,194.354 280.797,195.24 282.262,196.785 C283.877,198.491 284.767,200.79 284.644,202.938 L283.062,230.408 C282.889,233.408 280.821,235.47 278.016,235.47 C277.969,235.47 277.924,235.469 277.877,235.468 M287.329,200.804 C287.491,201.736 287.476,202.798 287.399,203.654 L287.039,208.939 L285.463,230.073 C285.399,231.876 284.799,233.805 283.551,235.208 C282.329,236.635 280.521,237.512 278.68,237.629 C275.094,237.581 271.603,237.353 268.061,237.248 C261,236.988 253.938,236.788 246.877,236.603 C253.939,236.753 261.002,236.892 268.063,236.967 L273.358,237.011 C275.11,237.002 276.916,237.077 278.625,236.999 C280.307,236.83 281.885,235.984 282.924,234.684 C283.987,233.377 284.453,231.728 284.459,230.014 L285.317,208.839 L285.566,203.548 C285.711,201.853 285.418,200.32 284.738,198.84 C283.404,195.935 280.52,193.636 277.402,193.489 L266.862,193.476 L256.269,193.41 L245.674,193.271 C244.06,193.235 242.459,193.804 241.285,194.918 C240.103,196.02 239.396,197.61 239.241,199.262 L237.988,220.398 L237.713,225.688 C237.563,227.439 237.862,229.227 238.639,230.812 C240.133,233.963 243.293,236.487 246.877,236.603 C243.291,236.513 240.1,234.008 238.571,230.844 C237.789,229.255 237.424,227.453 237.547,225.682 L237.711,220.385 L238.25,199.181 C238.356,197.323 239.094,195.44 240.461,194.075 C241.805,192.693 243.752,191.924 245.668,191.907 L256.264,191.694 L266.858,191.554 L277.508,191.493 C279.504,191.6 281.389,192.392 282.926,193.562 C284.467,194.739 285.688,196.282 286.488,198.036 C286.895,198.911 287.174,199.846 287.329,200.804 M123.261,196.785 C124.876,198.491 125.767,200.79 125.644,202.938 L124.062,230.408 C124.043,230.719 123.993,231.013 123.937,231.303 C123.853,231.299 123.769,231.295 123.685,231.291 C119.034,231.078 114.384,230.908 109.735,230.804 C106.719,230.732 103.702,230.677 100.686,230.648 L91.775,230.568 C91.338,230.485 90.67,230.11 90.108,229.728 C89.529,229.327 88.956,228.888 88.407,228.415 C87.314,227.471 86.281,226.418 85.445,225.286 C85.04,224.73 84.667,224.109 84.521,223.602 C84.484,223.471 84.476,223.388 84.47,223.29 L84.485,222.726 L84.515,221.593 L84.627,217.069 C84.758,211.033 84.765,204.993 84.632,198.948 C83.991,204.96 83.491,210.98 83.115,217.004 L82.846,221.524 L82.781,222.654 L82.749,223.218 C82.738,223.497 82.772,223.79 82.833,224.027 C83.082,224.984 83.547,225.655 84.004,226.325 C84.949,227.63 86.036,228.752 87.212,229.792 C87.801,230.312 88.419,230.802 89.09,231.247 C89.786,231.68 90.429,232.128 91.48,232.35 C91.842,232.396 91.991,232.377 92.182,232.379 L92.748,232.377 L93.88,232.372 L96.144,232.363 L100.671,232.312 C103.69,232.282 106.709,232.227 109.728,232.155 C114.348,232.052 118.968,231.882 123.588,231.671 C123.676,231.667 123.765,231.663 123.854,231.659 C123.253,233.961 121.409,235.47 119.015,235.47 C118.969,235.47 118.923,235.469 118.877,235.468 L87.922,234.729 C86.117,234.685 84.263,233.786 82.835,232.261 C81.252,230.572 80.395,228.381 80.482,226.254 L81.59,199.636 C81.715,196.6 83.786,194.474 86.624,194.465 L118.054,194.354 L118.074,194.354 C119.907,194.354 121.796,195.24 123.261,196.785 M173.877,235.468 L142.922,234.729 C141.117,234.685 139.263,233.786 137.835,232.261 C136.252,230.572 135.395,228.381 135.482,226.254 L136.59,199.636 C136.715,196.6 138.786,194.474 141.625,194.465 L173.054,194.354 L173.074,194.354 C174.907,194.354 176.796,195.24 178.261,196.785 C179.876,198.491 180.767,200.79 180.644,202.938 L179.062,230.408 C178.888,233.408 176.821,235.47 174.015,235.47 C173.969,235.47 173.923,235.469 173.877,235.468 M183.329,200.804 C183.491,201.736 183.476,202.798 183.399,203.654 L183.04,208.939 L181.462,230.073 C181.399,231.876 180.799,233.805 179.551,235.208 C178.329,236.635 176.521,237.512 174.68,237.629 C171.094,237.581 167.603,237.353 164.061,237.248 C157,236.988 149.938,236.788 142.877,236.603 C149.939,236.753 157.001,236.892 164.063,236.967 L169.358,237.011 C171.11,237.002 172.917,237.077 174.625,236.999 C176.306,236.83 177.885,235.984 178.923,234.684 C179.987,233.377 180.453,231.728 180.458,230.014 L181.317,208.839 L181.566,203.548 C181.71,201.853 181.417,200.32 180.738,198.84 C179.404,195.935 176.52,193.636 173.402,193.489 L162.862,193.476 L152.269,193.41 L141.673,193.271 C140.06,193.235 138.459,193.804 137.285,194.918 C136.103,196.02 135.396,197.61 135.241,199.262 L133.988,220.398 L133.713,225.688 C133.563,227.439 133.862,229.227 134.639,230.812 C136.133,233.963 139.292,236.487 142.877,236.603 C139.292,236.513 136.099,234.008 134.571,230.844 C133.79,229.255 133.424,227.453 133.546,225.682 L133.711,220.385 L134.25,199.181 C134.356,197.323 135.094,195.44 136.46,194.075 C137.805,192.693 139.752,191.924 141.668,191.907 L152.263,191.694 L162.858,191.554 L173.507,191.493 C175.504,191.6 177.389,192.392 178.925,193.562 C180.466,194.739 181.688,196.282 182.488,198.036 C182.895,198.911 183.173,199.846 183.329,200.804 M224.877,235.219 L193.922,234.48 C192.117,234.437 190.263,233.537 188.835,232.013 C187.252,230.323 186.395,228.132 186.482,226.005 L187.59,199.387 C187.715,196.351 189.786,194.225 192.625,194.216 L224.055,194.105 L224.073,194.105 C225.907,194.105 227.797,194.991 229.262,196.537 C230.877,198.242 231.767,200.542 231.644,202.69 L230.062,230.159 C229.889,233.158 227.821,235.221 225.016,235.221 C224.969,235.221 224.924,235.22 224.877,235.219 M234.329,200.554 C234.491,201.487 234.476,202.549 234.399,203.405 L234.039,208.69 L232.463,229.824 C232.399,231.627 231.799,233.557 230.551,234.959 C229.329,236.386 227.521,237.263 225.68,237.38 C222.094,237.332 218.603,237.104 215.061,236.999 C208,236.739 200.938,236.539 193.877,236.355 C200.939,236.505 208.002,236.644 215.063,236.718 L220.358,236.762 C222.11,236.753 223.916,236.828 225.625,236.75 C227.307,236.581 228.885,235.735 229.924,234.434 C230.987,233.128 231.453,231.479 231.459,229.766 L232.317,208.59 L232.566,203.299 C232.711,201.604 232.418,200.07 231.738,198.591 C230.404,195.686 227.519,193.387 224.402,193.24 L213.862,193.227 L203.269,193.161 L192.673,193.022 C191.06,192.986 189.459,193.554 188.285,194.669 C187.103,195.771 186.396,197.361 186.241,199.012 L184.988,220.149 L184.713,225.44 C184.563,227.19 184.862,228.979 185.639,230.563 C187.133,233.715 190.292,236.239 193.877,236.355 C190.292,236.264 187.099,233.759 185.571,230.595 C184.79,229.007 184.424,227.204 184.546,225.433 L184.711,220.137 L185.25,198.932 C185.356,197.074 186.094,195.193 187.46,193.825 C188.805,192.444 190.751,191.676 192.668,191.658 L203.262,191.445 L213.858,191.305 L224.508,191.244 C226.504,191.351 228.389,192.143 229.926,193.313 C231.467,194.49 232.688,196.033 233.488,197.787 C233.895,198.662 234.174,199.597 234.329,200.554 M171.424,65.471 L165.721,101.27 C165.302,103.906 163.095,105.886 160.431,106.019 L125.782,107.764 C122.147,107.948 119.292,104.693 119.946,101.112 L126.344,66.126 C126.805,63.601 128.913,61.706 131.472,61.513 L165.426,58.955 C169.061,58.681 171.998,61.872 171.424,65.471 M119.385,69.48 L112.502,104.065 C111.988,106.646 109.759,108.531 107.129,108.606 L83.619,109.284 C80.091,109.386 77.336,106.262 77.879,102.773 L83.135,68.981 C83.544,66.354 85.73,64.368 88.383,64.214 L113.521,62.744 C117.209,62.528 120.107,65.856 119.385,69.48 M77.626,71.146 C76.173,83.473 72.871,109.979 71.336,109.979 C69.864,109.979 53.227,111.062 44.544,111.635 C41.457,111.839 38.798,109.525 38.542,106.44 C37.333,91.875 41.623,70.719 55.336,66.979 C61.257,65.365 67.468,64.909 71.941,64.831 C75.354,64.773 78.025,67.757 77.626,71.146 M332.336,369.98 C327.476,369.98 323.536,360.129 323.536,347.98 C323.536,335.829 327.476,325.98 332.336,325.98 C337.196,325.98 341.136,335.829 341.136,347.98 C341.136,360.129 337.196,369.98 332.336,369.98 M334.836,310.336 C327.564,310.336 319.462,326.001 319.462,348.48 C319.462,370.958 327.564,386.623 334.836,386.623 C342.107,386.623 350.21,370.958 350.21,348.48 C350.21,326.001 342.107,310.336 334.836,310.336" fill="#0A0B09"/>
  </g>
</svg>
