<?xml version="1.0" standalone="no"?>
<!DOCTYPE svg PUBLIC "-//W3C//DTD SVG 20010904//EN""http://www.w3.org/TR/2001/REC-SVG-20010904/DTD/svg10.dtd">
<svg version="1.0" xmlns="http://www.w3.org/2000/svg"
 width="669.000000pt" height="178.000000pt" viewBox="0 0 669.000000 178.000000"
 preserveAspectRatio="xMidYMid meet">

<g transform="translate(0.000000,178.000000) scale(0.100000,-0.100000)"
fill="#000000" stroke="none">
<path d="M1650 1162 c-6 -2 -10 -12 -10 -23 0 -18 9 -19 148 -19 201 0 246
-14 304 -90 42 -56 29 -182 -23 -232 -54 -52 -90 -61 -264 -63 l-160 -2 -3
-137 c-2 -110 0 -136 11 -136 11 0 14 24 14 112 l-1 113 150 3 149 2 20 -32
c10 -18 23 -37 27 -43 31 -40 58 -76 82 -112 21 -31 35 -43 54 -43 22 0 23 2
11 18 -8 9 -18 20 -22 23 -5 3 -8 10 -6 15 1 5 -7 14 -18 19 -11 6 -18 16 -15
23 2 6 -2 12 -9 12 -7 0 -10 3 -6 6 5 6 -11 29 -50 69 -12 13 -20 25 -17 28 2
2 -2 10 -11 17 -13 10 -10 15 21 36 19 13 40 24 46 24 14 0 61 50 54 58 -4 3
2 14 11 24 13 15 14 21 5 27 -10 6 -10 10 2 20 18 15 18 77 0 96 -9 9 -11 16
-4 20 8 5 7 12 -2 22 -7 9 -12 19 -10 22 4 10 -70 81 -103 99 -23 13 -69 18
-198 22 -92 3 -172 4 -177 2z"/>
<path d="M2567 1159 c-75 -18 -152 -68 -208 -137 -33 -40 -69 -148 -69 -208 0
-131 86 -265 206 -321 52 -25 71 -28 159 -28 94 0 103 2 161 33 68 37 142 106
146 137 2 11 11 31 21 45 11 16 13 26 7 28 -7 3 -4 12 6 24 15 15 16 21 5 27
-9 6 -10 11 -2 15 14 9 14 66 0 66 -8 0 -7 6 2 17 10 12 11 17 2 20 -7 2 -9
11 -6 19 3 8 0 14 -6 14 -6 0 -8 7 -5 15 4 8 1 15 -5 15 -6 0 -8 7 -5 15 4 8
1 15 -6 15 -6 0 -9 4 -6 8 3 5 -6 21 -20 37 -13 15 -24 31 -24 36 0 4 -22 23
-50 43 -90 65 -202 89 -303 65z m144 -39 c29 -6 72 -20 94 -31 51 -27 112 -85
119 -115 4 -13 10 -24 15 -24 16 0 34 -102 29 -169 -13 -185 -202 -316 -389
-271 -63 15 -151 54 -143 63 4 4 -5 11 -19 18 -15 7 -23 17 -20 25 3 8 0 14
-7 14 -6 0 -8 5 -5 10 3 6 1 10 -5 10 -21 0 -35 25 -33 58 1 17 -2 32 -6 32
-15 0 -15 118 1 137 10 13 10 17 1 20 -9 3 -9 11 3 28 9 13 13 29 9 35 -3 5 1
10 10 10 9 0 14 4 11 8 -8 14 85 97 129 115 82 35 131 41 206 27z"/>
<path d="M3210 1145 c-7 -19 -2 -20 164 -25 159 -5 174 -7 216 -30 24 -14 51
-38 60 -55 8 -16 18 -31 23 -33 4 -2 7 -31 7 -65 0 -80 -29 -137 -85 -169 -36
-21 -56 -23 -215 -28 l-175 -5 0 -135 c0 -116 2 -135 16 -138 14 -3 16 11 15
111 l-1 115 150 4 c135 4 155 7 205 30 55 26 99 64 104 89 1 8 8 24 14 37 9
16 10 22 1 22 -8 0 -8 4 -1 13 13 16 13 67 0 67 -6 0 -4 7 3 17 10 12 11 17 2
20 -7 2 -9 11 -6 19 3 8 0 14 -7 14 -6 0 -9 4 -6 8 3 5 -3 18 -14 29 -10 12
-16 24 -13 27 4 3 1 6 -6 6 -6 0 -24 11 -38 24 -38 36 -91 45 -257 48 -141 3
-149 2 -156 -17z"/>
<path d="M5108 1156 c-44 -13 -111 -48 -149 -78 -26 -21 -89 -119 -89 -139 0
-10 -4 -21 -10 -24 -6 -3 -10 -48 -10 -100 0 -84 3 -99 31 -153 38 -75 98
-135 168 -169 43 -21 73 -28 143 -31 85 -4 90 -3 162 32 75 37 91 53 76 76 -6
10 -16 7 -42 -13 -19 -15 -64 -34 -101 -44 -57 -15 -75 -16 -135 -5 -68 11
-167 54 -155 66 4 3 1 6 -6 6 -16 0 -42 26 -34 34 4 3 -1 6 -11 6 -9 0 -15 4
-12 8 3 5 -3 18 -13 28 -9 11 -16 25 -13 32 2 6 0 12 -5 12 -5 0 -8 16 -7 35
2 19 0 35 -4 35 -10 0 -8 42 3 60 5 9 4 15 -4 18 -9 3 -9 7 0 18 6 7 9 20 6
29 -4 8 -1 17 4 21 6 3 9 14 6 24 -6 23 102 135 149 155 67 28 139 37 205 25
66 -12 139 -44 139 -60 0 -13 27 -13 35 1 11 16 -23 46 -81 74 -66 31 -177 41
-246 21z"/>
<path d="M5975 1013 c-85 -87 -179 -184 -209 -217 -47 -52 -57 -58 -81 -52
-23 6 -25 9 -13 23 10 13 11 17 0 21 -10 3 -10 7 0 20 11 12 11 16 0 20 -10 3
-10 7 0 20 11 12 11 16 0 20 -10 3 -10 7 0 20 11 12 11 16 0 20 -10 3 -10 7 0
20 11 12 11 16 0 20 -10 3 -10 7 0 20 11 12 11 16 0 20 -10 3 -10 7 0 20 11
12 11 16 0 20 -10 3 -10 7 0 20 11 12 11 16 0 20 -10 3 -10 7 0 20 11 12 11
16 0 20 -10 3 -10 7 -1 19 10 12 10 16 -2 24 -32 20 -34 9 -31 -166 2 -99 -2
-191 -7 -212 -7 -25 -7 -41 -1 -47 6 -6 10 -68 10 -138 0 -113 2 -128 17 -128
9 0 13 3 10 7 -4 3 -1 13 6 21 10 12 9 16 -1 20 -10 3 -10 7 0 20 11 12 11 16
0 20 -10 3 -10 7 0 20 11 12 11 16 0 20 -10 3 -10 7 0 20 11 12 11 16 0 20
-16 5 134 165 159 170 14 3 34 -16 144 -142 115 -130 142 -162 153 -178 7 -10
19 -18 27 -18 30 0 24 22 -15 60 -23 22 -38 40 -34 40 4 0 -4 10 -17 23 -55
54 -117 126 -111 131 3 3 0 6 -7 6 -14 0 -43 26 -40 36 1 3 -14 23 -34 44
l-35 38 42 47 c22 26 67 72 99 103 32 31 55 62 53 69 -3 7 1 13 8 13 19 0 81
62 82 82 1 10 -2 18 -7 18 -4 0 -78 -71 -164 -157z"/>
<path d="M810 1141 c0 -20 4 -21 155 -21 84 0 177 -5 205 -11 64 -14 164 -79
180 -119 7 -17 16 -30 21 -30 17 0 31 -88 27 -171 -3 -67 -9 -94 -28 -125 -35
-59 -70 -93 -125 -122 -48 -26 -59 -27 -222 -30 -119 -3 -173 0 -174 7 -2 14
-6 30 -9 34 -1 1 -2 58 -3 127 -2 113 -4 125 -21 128 -17 4 -18 -5 -14 -170
l3 -173 135 -3 c249 -5 348 29 452 157 10 11 13 21 8 21 -6 0 -1 13 10 28 12
16 22 35 23 43 2 8 5 19 9 24 9 16 6 145 -4 145 -5 0 -6 5 -3 10 4 6 -1 22 -9
35 -9 14 -14 25 -10 25 4 0 1 7 -6 15 -7 8 -10 15 -6 15 8 0 -21 35 -68 82
-36 36 -57 50 -116 79 -16 8 -92 14 -217 17 -190 4 -193 4 -193 -17z"/>
<path d="M3910 1140 c0 -19 7 -20 148 -20 172 0 240 -15 287 -62 29 -30 30
-33 30 -129 l0 -98 -37 -35 c-51 -48 -89 -56 -270 -56 l-158 0 0 -140 c0 -129
1 -140 18 -140 17 0 19 10 19 112 l-1 113 150 6 c100 4 161 11 184 21 42 18
145 121 145 146 1 9 5 24 10 31 5 10 4 16 -4 19 -9 3 -9 7 1 20 9 10 9 16 2
19 -5 2 -9 16 -8 32 1 18 -6 38 -17 50 -11 12 -16 21 -12 21 4 0 -8 16 -27 35
-19 19 -40 35 -47 35 -7 0 -13 4 -13 9 0 19 -96 31 -244 31 -149 0 -156 -1
-156 -20z"/>
<path d="M4620 810 c0 -298 2 -350 14 -350 19 0 29 17 16 25 -8 5 -7 12 2 23
11 12 11 16 0 20 -10 3 -10 7 0 20 11 12 11 16 0 20 -10 3 -10 7 0 20 11 12
11 16 0 20 -10 3 -10 7 0 20 11 12 11 16 0 20 -10 3 -10 7 -1 19 8 9 9 17 3
21 -11 9 -11 42 0 61 5 8 4 16 -4 21 -9 5 -9 9 -1 14 6 4 8 13 4 19 -10 16 -9
49 2 67 5 9 4 15 -4 18 -9 3 -9 7 1 20 8 9 9 17 3 19 -12 4 -12 164 0 183 5 9
4 15 -4 18 -9 3 -9 7 0 18 9 11 7 14 -10 14 l-21 0 0 -350z"/>
</g>
</svg>
